<svg width="503" height="43" viewBox="0 0 503 43" fill="none" xmlns="http://www.w3.org/2000/svg">
<rect width="503" height="43" rx="7" fill="#818181"/>
<ellipse cx="20.8474" cy="21.5001" rx="11.0891" ry="11.9444" fill="#D9D9D9"/>
<path d="M56.3139 25.051V18.6021H57.99V29.5112H56.3139V27.6646H56.2002C55.9446 28.2186 55.5468 28.6897 55.0071 29.078C54.4673 29.4615 53.7855 29.6533 52.9616 29.6533C52.2798 29.6533 51.6737 29.5041 51.1434 29.2058C50.6131 28.9028 50.1965 28.4483 49.8934 27.8422C49.5904 27.2314 49.4389 26.462 49.4389 25.534V18.6021H51.115V25.4203C51.115 26.2158 51.3376 26.8502 51.7826 27.3237C52.2324 27.7972 52.8054 28.034 53.5014 28.034C53.918 28.034 54.3418 27.9274 54.7727 27.7144C55.2083 27.5013 55.5729 27.1746 55.8664 26.7342C56.1647 26.2939 56.3139 25.7328 56.3139 25.051ZM62.7361 22.9487V29.5112H61.06V18.6021H62.6793V20.3067H62.8213C63.077 19.7527 63.4653 19.3076 63.9861 18.9715C64.5069 18.6305 65.1793 18.4601 66.0032 18.4601C66.7418 18.4601 67.3881 18.6116 67.9421 18.9146C68.496 19.2129 68.9269 19.6675 69.2347 20.2783C69.5425 20.8843 69.6963 21.6514 69.6963 22.5794V29.5112H68.0202V22.693C68.0202 21.836 67.7977 21.1684 67.3526 20.6902C66.9075 20.2073 66.2967 19.9658 65.5202 19.9658C64.9852 19.9658 64.5069 20.0818 64.0855 20.3138C63.6689 20.5458 63.3398 20.8843 63.0983 21.3294C62.8568 21.7745 62.7361 22.3143 62.7361 22.9487ZM77.5035 18.6021V20.0226H71.8501V18.6021H77.5035ZM73.4978 15.9885H75.174V26.3862C75.174 26.8597 75.2426 27.2148 75.3799 27.4516C75.522 27.6836 75.7019 27.8398 75.9197 27.9203C76.1422 27.9961 76.3766 28.034 76.6228 28.034C76.8075 28.034 76.959 28.0245 77.0774 28.0055C77.1957 27.9819 77.2904 27.9629 77.3615 27.9487L77.7024 29.4544C77.5887 29.497 77.4301 29.5396 77.2265 29.5823C77.0229 29.6296 76.7649 29.6533 76.4524 29.6533C75.9789 29.6533 75.5149 29.5515 75.0603 29.3479C74.6105 29.1443 74.2365 28.8341 73.9382 28.4175C73.6446 28.0008 73.4978 27.4752 73.4978 26.8408V15.9885ZM80.0248 29.5112V18.6021H81.701V29.5112H80.0248ZM80.8771 16.784C80.5504 16.784 80.2687 16.6727 80.0319 16.4502C79.7999 16.2276 79.6839 15.9601 79.6839 15.6476C79.6839 15.3351 79.7999 15.0676 80.0319 14.845C80.2687 14.6225 80.5504 14.5112 80.8771 14.5112C81.2038 14.5112 81.4831 14.6225 81.7152 14.845C81.9519 15.0676 82.0703 15.3351 82.0703 15.6476C82.0703 15.9601 81.9519 16.2276 81.7152 16.4502C81.4831 16.6727 81.2038 16.784 80.8771 16.784ZM89.5152 18.6021V20.0226H83.8618V18.6021H89.5152ZM85.5095 15.9885H87.1857V26.3862C87.1857 26.8597 87.2543 27.2148 87.3916 27.4516C87.5337 27.6836 87.7136 27.8398 87.9314 27.9203C88.154 27.9961 88.3883 28.034 88.6345 28.034C88.8192 28.034 88.9707 28.0245 89.0891 28.0055C89.2075 27.9819 89.3022 27.9629 89.3732 27.9487L89.7141 29.4544C89.6005 29.497 89.4418 29.5396 89.2382 29.5823C89.0346 29.6296 88.7766 29.6533 88.4641 29.6533C87.9906 29.6533 87.5266 29.5515 87.072 29.3479C86.6222 29.1443 86.2482 28.8341 85.9499 28.4175C85.6563 28.0008 85.5095 27.4752 85.5095 26.8408V15.9885ZM93.947 14.9658V29.5112H92.2709V14.9658H93.947ZM101.591 29.7385C100.54 29.7385 99.633 29.5065 98.8707 29.0425C98.1131 28.5737 97.5284 27.9203 97.1164 27.0823C96.7092 26.2395 96.5056 25.2593 96.5056 24.1419C96.5056 23.0245 96.7092 22.0396 97.1164 21.1874C97.5284 20.3304 98.1013 19.6627 98.8352 19.1845C99.5738 18.7016 100.436 18.4601 101.42 18.4601C101.989 18.4601 102.55 18.5548 103.104 18.7442C103.658 18.9336 104.162 19.2413 104.616 19.6675C105.071 20.0889 105.433 20.6476 105.703 21.3436C105.973 22.0396 106.108 22.8966 106.108 23.9146V24.6249H97.6988V23.176H104.403C104.403 22.5605 104.28 22.0112 104.034 21.5283C103.793 21.0453 103.447 20.6642 102.997 20.3848C102.552 20.1055 102.026 19.9658 101.42 19.9658C100.753 19.9658 100.175 20.1315 99.6875 20.4629C99.2045 20.7896 98.8328 21.2158 98.5724 21.7413C98.312 22.2669 98.1818 22.8304 98.1818 23.4317V24.3976C98.1818 25.2215 98.3238 25.9198 98.6079 26.4928C98.8967 27.0609 99.2968 27.4942 99.8082 27.7925C100.32 28.086 100.914 28.2328 101.591 28.2328C102.031 28.2328 102.429 28.1713 102.784 28.0482C103.144 27.9203 103.454 27.7309 103.714 27.48C103.975 27.2243 104.176 26.9071 104.318 26.5283L105.937 26.9828C105.767 27.5321 105.481 28.015 105.078 28.4317C104.676 28.8436 104.178 29.1656 103.587 29.3976C102.995 29.6249 102.33 29.7385 101.591 29.7385ZM112.777 29.7385C111.868 29.7385 111.065 29.5089 110.369 29.0496C109.673 28.5856 109.129 27.9322 108.736 27.0894C108.343 26.2418 108.146 25.2404 108.146 24.0851C108.146 22.9393 108.343 21.9449 108.736 21.1021C109.129 20.2593 109.676 19.6083 110.376 19.149C111.077 18.6897 111.887 18.4601 112.805 18.4601C113.516 18.4601 114.077 18.5785 114.489 18.8152C114.905 19.0472 115.222 19.3124 115.44 19.6107C115.663 19.9042 115.836 20.1457 115.959 20.3351H116.101V14.9658H117.777V29.5112H116.158V27.8351H115.959C115.836 28.034 115.66 28.2849 115.433 28.5879C115.206 28.8862 114.882 29.1537 114.46 29.3905C114.039 29.6225 113.478 29.7385 112.777 29.7385ZM113.004 28.2328C113.677 28.2328 114.245 28.0576 114.709 27.7073C115.173 27.3521 115.526 26.8621 115.767 26.2371C116.008 25.6073 116.129 24.8805 116.129 24.0567C116.129 23.2423 116.011 22.5297 115.774 21.9189C115.537 21.3034 115.187 20.8252 114.723 20.4842C114.259 20.1386 113.686 19.9658 113.004 19.9658C112.294 19.9658 111.702 20.1481 111.229 20.5127C110.76 20.8725 110.407 21.3626 110.17 21.9828C109.938 22.5984 109.822 23.2896 109.822 24.0567C109.822 24.8332 109.941 25.5387 110.178 26.1732C110.419 26.8029 110.774 27.3048 111.243 27.6788C111.716 28.0482 112.303 28.2328 113.004 28.2328Z" fill="#FFEED5"/>
</svg>
